<svg width="475" height="135" viewBox="0 0 475 135" fill="none" xmlns="http://www.w3.org/2000/svg">
<path d="M106.898 84.2057C110.279 89.5947 114.188 94.7959 114.977 83.9663C112.309 85.6755 109.222 85.1205 106.898 84.2057Z" fill="#E1E1FF"/>
<path d="M54.2511 52.6194C58.3467 50.1097 59.9546 45.7245 60.5701 43.0632C49.9601 38.6754 47.9827 41.0411 50.6566 47.3741C51.3709 49.0659 52.6638 50.8648 54.2511 52.6194Z" fill="#E1E1FF"/>
<path fill-rule="evenodd" clip-rule="evenodd" d="M93.8198 10.0046C104.248 9.85981 116.415 13.0463 118.733 29.4859C120.787 44.0558 109.417 52.7654 104.586 55.1634C109.123 59.7915 115.296 68.3697 115.112 80.6879C115.106 81.0435 115.098 81.384 115.088 81.7168C113.608 83.0728 110.824 84.0551 105.668 82.2167C105.053 81.2171 104.475 80.2832 103.959 79.5292C100.193 74.0251 95.9924 75.7632 88.6054 99.3726C81.2184 122.982 77.3077 100.821 78.0319 94.3031C78.7561 87.7852 78.1767 83.7296 71.3691 95.6067C64.5615 107.484 59.492 104.152 60.0714 95.6067C60.6508 87.061 65.1409 76.4875 67.7481 72.8664C70.3552 69.2453 72.5279 64.031 68.6171 63.0171C66.0263 62.3454 60.195 58.5582 55.7526 54.1836C57.8025 52.8019 61.8709 49.4225 62.6865 43.944C71.1901 47.3112 75.6812 45.8039 77.8452 45.0777C77.9664 45.037 78.0804 44.9987 78.1873 44.9639C76.1359 41.9545 73.9497 37.0164 74.266 29.2687C74.8454 15.0741 83.391 10.1494 93.8198 10.0046ZM110.55 27.3431C110.55 22.1288 106.747 14.2564 93.8198 13.9305C80.8926 13.6046 80.2253 24.4273 80.2253 24.4273C79.3932 28.9028 77.0029 41.9221 94.2211 41.9221C110.657 41.9221 110.593 33.3893 110.553 28.0784C110.551 27.8256 110.55 27.5801 110.55 27.3431ZM89.3829 59.3357C89.4339 59.3515 89.7392 59.429 90.299 59.5684C90.0734 60.1183 89.7185 60.8069 89.2342 61.6342C88.7515 62.4564 88.4913 62.9286 88.4535 63.0509C88.4157 63.1732 88.4452 63.3581 88.5418 63.6056C88.6451 63.8496 88.7502 63.9881 88.8572 64.0212C88.9031 64.0354 88.9663 63.9935 89.0467 63.8955C89.1339 63.794 89.334 63.4623 89.647 62.9003C89.9617 62.3332 90.2378 61.8547 90.4754 61.4648C90.7146 61.0698 90.8992 60.7612 91.0292 60.539C91.1643 60.3183 91.2444 60.1673 91.2696 60.0857C91.2948 60.0042 91.3066 59.9297 91.3051 59.8623C91.5583 59.946 91.838 60.0435 92.1442 60.1548C92.4503 60.2661 92.662 60.3398 92.7792 60.376C92.8964 60.4122 93.0019 60.4141 93.0956 60.3816C93.1909 60.344 93.2488 60.2921 93.2693 60.2259C93.3369 60.0068 93.2185 59.7665 92.9141 59.505C92.6097 59.2436 92.0855 58.998 91.3415 58.7683C89.8891 58.3199 89.1244 58.2205 89.0473 58.4702C88.997 58.6333 89.0093 58.8101 89.0844 59.0008C89.1611 59.1863 89.2606 59.298 89.3829 59.3357ZM94.7565 60.099C94.5407 59.8035 94.3844 59.6408 94.2876 59.6109C94.1398 59.5653 94.0399 59.6266 93.988 59.7948C93.8873 60.1209 93.4955 60.8567 92.8125 62.0022C92.1345 63.1493 91.7744 63.7916 91.7319 63.9292C91.6894 64.0668 91.7094 64.2822 91.7918 64.5756C91.8809 64.8655 91.9714 65.0246 92.0631 65.0529C92.1446 65.0781 92.2859 64.9459 92.487 64.6563C92.6063 64.4866 92.7043 64.3411 92.7809 64.2196C92.8575 64.0981 93.0179 63.8406 93.2622 63.4472C93.5065 63.0537 93.7428 62.6048 93.9711 62.1004C93.9678 62.2556 93.9538 62.536 93.9291 62.9414C93.911 63.3433 93.9135 63.6064 93.9365 63.7308C93.9841 63.9743 94.1404 64.137 94.4054 64.2188C94.6042 64.2802 94.8434 64.2284 95.1231 64.0636C95.2813 63.9673 95.4135 63.8826 95.5198 63.8093C95.6328 63.7326 95.8039 63.6124 96.0331 63.4487C96.2638 63.2799 96.4398 63.1529 96.561 63.0675C95.9748 63.8633 95.5983 64.5313 95.4315 65.0715C95.3639 65.2906 95.347 65.517 95.3809 65.7508C95.4214 65.981 95.4927 66.1118 95.5946 66.1433C95.6965 66.1748 95.792 66.1456 95.8811 66.0559C95.929 66.0093 95.9759 65.9568 96.0218 65.8984C96.0694 65.835 96.1281 65.7442 96.198 65.6263C96.2746 65.5048 96.3437 65.3894 96.4053 65.2801C96.4737 65.1672 96.5656 65.0142 96.6811 64.821C96.7981 64.6227 96.9079 64.4389 97.0104 64.2696L97.4528 63.5689C97.6436 63.2762 97.7903 63.0452 97.8928 62.8759C98.002 62.7031 98.11 62.5159 98.2169 62.3145C98.3253 62.108 98.4007 61.9359 98.4432 61.7983C98.4857 61.6607 98.4619 61.5027 98.3719 61.3242C98.2819 61.1457 98.1758 61.0375 98.0535 60.9998C97.9312 60.962 97.7019 61.0447 97.3656 61.2479C97.0294 61.4511 96.6031 61.7381 96.0867 62.1089C95.577 62.4762 95.2182 62.7254 95.0102 62.8566C94.9596 62.4782 94.9386 62.067 94.9473 61.6231C94.956 61.1793 94.9878 60.8682 95.0429 60.6898C95.0744 60.5879 94.9789 60.3909 94.7565 60.099Z" fill="#E1E1FF"/>
<path d="M87.7868 26.3484C89.0642 26.515 90.3868 25.3737 90.7407 23.7993C91.0947 22.2248 90.3461 20.8134 89.0686 20.6469C87.7911 20.4803 86.4686 21.6216 86.1146 23.196C85.7607 24.7705 86.5093 26.1819 87.7868 26.3484Z" fill="#E1E1FF"/>
<path d="M98.2836 28.6811C99.5611 28.8477 100.884 27.7064 101.238 26.1319C101.592 24.5575 100.843 23.1461 99.5655 22.9795C98.288 22.8129 96.9655 23.9542 96.6115 25.5287C96.2575 27.1031 97.0062 28.5145 98.2836 28.6811Z" fill="#E1E1FF"/>
<path d="M50.2966 77.4518C43.9511 74.4971 43.1369 69.3397 42.2027 63.084C41.0291 55.2252 37.0634 49.8826 29.7684 46.4118C19.5617 41.5558 7.62483 44.2625 0 52.4664C5.8948 48.3895 13.5317 45.1799 20.8065 45.8212C33.4128 46.9327 36.4022 58.0949 38.2777 68.4718C40.0211 78.1181 49.7095 86.8732 60.0099 82.9684C65.8019 80.7727 71.9586 72.9947 71.8058 66.5207C68.0709 74.965 59.7762 81.866 50.2966 77.4518Z" fill="#E1E1FF"/>
<path d="M152.825 38.745C146.705 39.085 143.362 39.255 142.795 39.255C141.435 39.255 140.075 38.4333 138.715 36.79C137.355 35.09 136.675 33.3333 136.675 31.52C136.675 28.7433 144.75 27.355 160.9 27.355C169.173 27.355 175.265 28.205 179.175 29.905C183.085 31.605 185.04 33.6733 185.04 36.11C185.04 36.8467 184.615 37.555 183.765 38.235C182.915 38.8583 181.838 39.17 180.535 39.17C179.232 39.17 176.852 39.085 173.395 38.915C169.938 38.745 166.793 38.6317 163.96 38.575C164.187 39.255 164.3 40.0483 164.3 40.955C164.3 41.8617 163.96 43.6467 163.28 46.31C162.657 48.9733 161.75 52.685 160.56 57.445C159.37 62.1483 158.067 67.8717 156.65 74.615C155.233 81.3017 154.242 85.2967 153.675 86.6C153.165 87.8467 152.655 88.47 152.145 88.47C150.955 88.47 149.453 87.3933 147.64 85.24C145.883 83.03 145.005 81.245 145.005 79.885C145.005 78.525 146.167 72.915 148.49 63.055C150.813 53.1383 152.258 45.035 152.825 38.745ZM188.69 34.495C188.69 33.0217 189.342 31.52 190.645 29.99C192.005 28.4033 193.309 27.61 194.555 27.61C195.859 27.61 197.389 29.14 199.145 32.2C200.902 35.26 201.78 37.4983 201.78 38.915C201.78 40.275 201.327 41.3233 200.42 42.06C199.514 42.7967 198.579 43.165 197.615 43.165C195.972 43.165 194.074 42.0883 191.92 39.935C189.767 37.7817 188.69 35.9683 188.69 34.495ZM189.965 45.12C191.949 45.12 193.705 46.2533 195.235 48.52C196.822 50.7867 197.615 52.9683 197.615 55.065C197.615 56.1417 196.624 60.0233 194.64 66.71C192.714 73.34 190.787 79.63 188.86 85.58C188.18 87.79 186.792 88.895 184.695 88.895C183.449 88.895 182.344 88.4417 181.38 87.535C180.474 86.5717 180.02 85.3533 180.02 83.88C180.02 82.35 180.729 78.61 182.145 72.66C183.619 66.6533 184.724 61.5533 185.46 57.36C186.254 53.11 186.962 50.0217 187.585 48.095C188.265 46.1117 189.059 45.12 189.965 45.12ZM233.72 45.12C236.667 45.12 239.245 46.4517 241.455 49.115C243.722 51.7217 244.855 54.5267 244.855 57.53C244.855 62.3467 244.062 67.39 242.475 72.66C240.945 77.8733 239.245 81.8967 237.375 84.73C235.562 87.5633 233.692 88.98 231.765 88.98C229.895 88.98 228.96 87.6483 228.96 84.985C228.96 82.945 229.895 78.8367 231.765 72.66C233.182 67.56 233.89 63.905 233.89 61.695C233.89 59.485 233.607 58.38 233.04 58.38C232.304 58.38 231.567 58.7483 230.83 59.485C230.15 60.2217 229.584 60.8733 229.13 61.44C228.677 62.0067 228.139 62.7433 227.515 63.65C226.949 64.5 226.439 65.2933 225.985 66.03C225.589 66.71 225.05 67.6167 224.37 68.75C223.747 69.8267 223.237 70.7333 222.84 71.47C222.444 72.15 221.934 73.0567 221.31 74.19C216.04 84.05 211.904 88.98 208.9 88.98C207.71 88.98 206.209 87.96 204.395 85.92C202.582 83.8233 201.675 82.2933 201.675 81.33C201.675 80.7067 202.072 79.375 202.865 77.335C203.715 75.2383 204.31 73.6517 204.65 72.575C205.047 71.4417 205.359 70.2517 205.585 69.005C205.869 67.7583 206.095 66.4267 206.265 65.01C206.435 63.5367 206.549 62.4033 206.605 61.61C206.719 60.8167 206.832 59.57 206.945 57.87C207.455 50.5033 207.88 46.4233 208.22 45.63C208.617 44.8367 209.042 44.44 209.495 44.44C211.649 44.44 213.717 45.3467 215.7 47.16C217.684 48.9167 218.675 50.5317 218.675 52.005C218.675 55.5183 217.769 60.5617 215.955 67.135C219.639 60.675 222.982 55.405 225.985 51.325C229.045 47.1883 231.624 45.12 233.72 45.12ZM281.211 47.245C281.551 45.8283 282.486 45.12 284.016 45.12C285.546 45.12 287.104 46.0833 288.691 48.01C290.334 49.9367 291.156 52.1183 291.156 54.555C291.156 55.9717 290.646 58.21 289.626 61.27C288.606 64.33 287.869 66.5117 287.416 67.815C287.019 69.1183 286.424 70.9033 285.631 73.17C284.838 75.38 284.101 77.4483 283.421 79.375C282.798 81.245 281.919 83.7667 280.786 86.94C279.709 90.1133 278.718 93.06 277.811 95.78C276.054 100.88 273.901 104.818 271.351 107.595C268.858 110.372 265.599 111.76 261.576 111.76C257.553 111.76 253.954 110.683 250.781 108.53C247.608 106.433 246.021 104.308 246.021 102.155C246.021 100.852 246.588 99.4067 247.721 97.82C248.911 96.2333 249.903 95.44 250.696 95.44C251.546 95.44 252.623 96.0917 253.926 97.395C255.286 98.755 256.674 100.087 258.091 101.39C259.508 102.75 260.754 103.43 261.831 103.43C262.568 103.43 263.163 103.09 263.616 102.41C264.126 101.73 264.523 101.107 264.806 100.54C265.146 100.03 265.486 99.2933 265.826 98.33C266.166 97.4233 266.478 96.5733 266.761 95.78C267.044 94.9867 267.384 93.9383 267.781 92.635C268.178 91.3317 268.518 90.17 268.801 89.15C269.764 86.09 270.586 83.37 271.266 80.99C269.396 83.4267 267.469 85.3817 265.486 86.855C263.503 88.2717 261.661 88.98 259.961 88.98C258.318 88.98 256.249 87.7333 253.756 85.24C251.319 82.69 250.101 79.9133 250.101 76.91C250.101 73.85 250.753 69.77 252.056 64.67C253.416 59.57 255.088 55.0367 257.071 51.07C259.054 47.1033 260.811 45.12 262.341 45.12C264.098 45.12 265.741 45.885 267.271 47.415C268.858 48.8883 269.651 50.3333 269.651 51.75C269.651 53.11 268.943 55.32 267.526 58.38C266.166 61.44 264.778 64.7833 263.361 68.41C261.944 72.0367 261.236 75.125 261.236 77.675C261.236 78.015 261.378 78.185 261.661 78.185C262.398 78.185 263.956 76.825 266.336 74.105C268.716 71.3283 271.379 67.4183 274.326 62.375C277.329 57.275 279.624 52.2317 281.211 47.245ZM306.756 26.675C307.833 26.675 309.929 27.8367 313.046 30.16C316.219 32.4267 317.806 34.1267 317.806 35.26C317.806 37.2433 318.458 40.5017 319.761 45.035C321.064 49.5683 322.566 53.6767 324.266 57.36C325.966 55.3767 328.828 51.7217 332.851 46.395C336.931 41.0117 340.359 36.7617 343.136 33.645C345.913 30.5283 347.981 28.97 349.341 28.97C350.701 28.97 352.118 29.735 353.591 31.265C355.064 32.795 355.801 34.325 355.801 35.855C355.801 37.385 355.574 39.3683 355.121 41.805C354.668 44.185 354.158 46.4233 353.591 48.52C353.081 50.56 352.316 53.365 351.296 56.935C350.333 60.505 349.568 63.3383 349.001 65.435C348.491 67.475 347.953 69.685 347.386 72.065C346.819 74.3883 346.366 76.23 346.026 77.59C345.743 78.8933 345.403 80.2817 345.006 81.755C344.666 83.1717 344.354 84.2767 344.071 85.07C343.788 85.8067 343.476 86.4867 343.136 87.11C342.513 88.3 341.634 88.895 340.501 88.895C339.368 88.895 338.234 87.79 337.101 85.58C336.024 83.3133 335.486 80.9617 335.486 78.525C335.486 72.5183 337.214 64.5567 340.671 54.64C339.708 55.8867 338.319 57.7283 336.506 60.165C334.693 62.545 333.333 64.3017 332.426 65.435C331.576 66.5117 330.499 67.7867 329.196 69.26C326.873 71.81 324.606 73.085 322.396 73.085C319.449 73.085 317.353 71.9233 316.106 69.6C315.483 68.41 314.633 65.7467 313.556 61.61C312.536 57.4167 311.799 54.5267 311.346 52.94C310.609 58.7767 309.618 64.075 308.371 68.835C307.124 73.595 306.303 76.7117 305.906 78.185C305.509 79.6583 304.971 81.4433 304.291 83.54C303.158 87.11 302.138 88.895 301.231 88.895C300.211 88.895 298.794 87.5633 296.981 84.9C295.224 82.18 294.346 80.055 294.346 78.525C294.346 76.995 295.989 69.345 299.276 55.575C302.619 41.805 304.291 33.1067 304.291 29.48C304.291 27.61 305.113 26.675 306.756 26.675ZM394.039 64.84C395.059 65.7467 395.569 66.5683 395.569 67.305C395.569 68.0417 395.229 69.5717 394.549 71.895C393.869 74.2183 393.416 76.0317 393.189 77.335C392.962 78.5817 392.764 79.5733 392.594 80.31C392.481 81.0467 392.396 81.6417 392.339 82.095C392.282 82.4917 392.169 83.0017 391.999 83.625C391.886 84.2483 391.772 84.7583 391.659 85.155C391.602 85.495 391.489 85.92 391.319 86.43C391.206 86.8833 391.064 87.2517 390.894 87.535C390.724 87.7617 390.526 88.0167 390.299 88.3C389.959 88.7533 389.392 88.98 388.599 88.98C387.806 88.98 386.814 88.1867 385.624 86.6C384.491 85.0133 383.641 83.0867 383.074 80.82C377.747 86.26 373.271 88.98 369.644 88.98C367.207 88.98 364.572 87.6483 361.739 84.985C358.906 82.265 357.489 79.5733 357.489 76.91C357.489 74.19 358.707 70.3367 361.144 65.35C363.581 60.3633 366.896 55.745 371.089 51.495C375.339 47.245 379.532 45.12 383.669 45.12C386.049 45.12 388.797 46.5083 391.914 49.285C395.031 52.0617 396.589 54.6117 396.589 56.935C396.589 59.2017 395.739 61.8367 394.039 64.84ZM369.304 78.27C371.571 78.27 374.574 76.74 378.314 73.68C382.111 70.5633 384.462 66.6533 385.369 61.95C385.426 61.27 385.907 60.8733 386.814 60.76C386.644 57.53 386.106 55.915 385.199 55.915C382.932 55.915 380.382 57.3883 377.549 60.335C374.772 63.2817 372.477 66.4267 370.664 69.77C368.907 73.1133 368.029 75.5783 368.029 77.165C368.029 77.6183 368.086 77.93 368.199 78.1C368.369 78.2133 368.737 78.27 369.304 78.27ZM405.919 59.485L405.409 49.88C405.409 46.7067 406.401 45.12 408.384 45.12C409.517 45.12 410.622 45.545 411.699 46.395C412.832 47.245 413.682 48.5767 414.249 50.39C416.176 48.69 418.272 47.33 420.539 46.31C422.862 45.2333 424.902 44.695 426.659 44.695C430.796 44.695 432.864 45.6867 432.864 47.67C432.864 48.69 432.666 49.455 432.269 49.965C431.929 50.4183 431.646 50.7583 431.419 50.985C431.249 51.2117 430.909 51.5233 430.399 51.92C429.946 52.26 429.606 52.515 429.379 52.685C428.076 53.535 427.141 54.13 426.574 54.47C424.024 56.0567 421.842 57.9833 420.029 60.25C418.216 62.46 416.856 65.5483 415.949 69.515C414.419 76.0317 412.917 80.905 411.444 84.135C410.027 87.3083 408.412 88.895 406.599 88.895C404.842 88.895 403.511 88.045 402.604 86.345C401.754 84.645 401.329 83.0583 401.329 81.585C401.329 80.055 401.867 77.7883 402.944 74.785C404.077 71.7817 404.842 69.2033 405.239 67.05C405.692 64.84 405.919 62.3183 405.919 59.485ZM439.945 88.98C438.642 88.98 436.998 87.9317 435.015 85.835C433.088 83.7383 432.125 82.0667 432.125 80.82C432.125 80.48 433.06 77.1083 434.93 70.705C436.857 64.3017 438.755 56.595 440.625 47.585C442.552 38.575 443.515 30.6983 443.515 23.955C443.515 22.1983 444.308 21.32 445.895 21.32C447.255 21.32 449.04 22.5667 451.25 25.06C453.517 27.4967 454.65 29.7917 454.65 31.945C454.65 35.0617 453.517 40.955 451.25 49.625C449.04 58.295 446.83 65.1233 444.62 70.11C445.357 69.1467 446.348 67.8717 447.595 66.285C448.898 64.6417 449.947 63.31 450.74 62.29C451.533 61.27 452.497 60.0233 453.63 58.55C454.82 57.0767 455.812 55.8867 456.605 54.98C457.398 54.0167 458.277 52.9683 459.24 51.835C460.203 50.645 461.025 49.71 461.705 49.03C462.442 48.2933 463.178 47.6133 463.915 46.99C465.275 45.7433 466.323 45.12 467.06 45.12C468.477 45.12 470.035 46.0833 471.735 48.01C473.435 49.88 474.285 51.5233 474.285 52.94C474.285 53.5067 473.067 54.81 470.63 56.85C468.25 58.89 465.842 61.1567 463.405 63.65C461.025 66.1433 459.835 68.3817 459.835 70.365C459.835 72.2917 460.402 74.19 461.535 76.06C462.725 77.8733 464 79.2617 465.36 80.225C466.72 81.1883 467.967 82.18 469.1 83.2C470.29 84.1633 470.885 84.985 470.885 85.665C470.885 87.875 469.383 88.98 466.38 88.98C462.81 88.98 458.078 85.9767 452.185 79.97L450.145 77.93C445.045 85.2967 441.645 88.98 439.945 88.98Z" fill="#E1E1FF"/>
</svg>
