<svg width="552" height="159" viewBox="0 0 552 159" fill="none" xmlns="http://www.w3.org/2000/svg">
<path d="M106.898 96.2057C110.279 101.595 114.188 106.796 114.977 95.9663C112.309 97.6755 109.222 97.1205 106.898 96.2057Z" fill="#BDD0E5"/>
<path d="M54.2511 64.6194C58.3467 62.1097 59.9546 57.7245 60.5701 55.0632C49.9601 50.6754 47.9827 53.0411 50.6566 59.3741C51.3709 61.0659 52.6638 62.8648 54.2511 64.6194Z" fill="#BDD0E5"/>
<path d="M118.733 41.4859C116.415 25.0463 104.248 21.8598 93.8198 22.0046C83.391 22.1494 74.8454 27.0741 74.266 41.2687C73.9497 49.0164 76.1359 53.9545 78.1873 56.9639C76.1719 57.6197 71.6667 59.4999 62.6865 55.944C61.8709 61.4225 57.8025 64.8019 55.7526 66.1836C60.195 70.5582 66.0263 74.3454 68.6171 75.0171C72.5279 76.031 70.3552 81.2453 67.7481 84.8664C65.1409 88.4875 60.6508 99.061 60.0714 107.607C59.492 116.152 64.5615 119.484 71.3691 107.607C78.1767 95.7296 78.7561 99.7852 78.0319 106.303C77.3077 112.821 81.2184 134.982 88.6054 111.373C95.9924 87.7632 100.193 86.0251 103.959 91.5292C104.475 92.2832 105.053 93.2171 105.668 94.2167C110.824 96.0551 113.608 95.0728 115.088 93.7168C115.098 93.384 115.106 93.0435 115.112 92.6879C115.296 80.3697 109.123 71.7915 104.586 67.1634C109.417 64.7654 120.787 56.0558 118.733 41.4859ZM93.8198 25.9305C106.747 26.2564 110.55 34.1288 110.55 39.3431C110.55 44.5575 111.439 53.9221 94.2211 53.9221C77.0029 53.9221 79.3933 40.9028 80.2253 36.4273C80.2253 36.4273 80.8926 25.6046 93.8198 25.9305Z" fill="#BDD0E5"/>
<path d="M87.7868 38.3484C89.0642 38.515 90.3868 37.3737 90.7407 35.7993C91.0947 34.2248 90.3461 32.8134 89.0686 32.6469C87.7911 32.4803 86.4686 33.6216 86.1146 35.196C85.7607 36.7705 86.5093 38.1819 87.7868 38.3484Z" fill="#BDD0E5"/>
<path d="M98.2836 40.6811C99.5611 40.8477 100.884 39.7064 101.238 38.1319C101.592 36.5575 100.843 35.1461 99.5655 34.9795C98.288 34.8129 96.9655 35.9542 96.6115 37.5287C96.2575 39.1031 97.0062 40.5145 98.2836 40.6811Z" fill="#BDD0E5"/>
<path d="M50.2966 89.4518C43.9511 86.4971 43.1369 81.3397 42.2027 75.084C41.0291 67.2252 37.0634 61.8826 29.7684 58.4118C19.5617 53.5558 7.62483 56.2625 0 64.4664C5.8948 60.3895 13.5317 57.1799 20.8065 57.8212C33.4128 58.9327 36.4022 70.0949 38.2777 80.4718C40.0211 90.1181 49.7095 98.8732 60.0099 94.9684C65.8019 92.7727 71.9586 84.9947 71.8058 78.5207C68.0709 86.965 59.7762 93.866 50.2966 89.4518Z" fill="#BDD0E5"/>
<path d="M90.299 71.5684C89.7392 71.429 89.4339 71.3515 89.3829 71.3357C89.2606 71.298 89.1611 71.1863 89.0844 71.0008C89.0093 70.8101 88.997 70.6333 89.0473 70.4702C89.1244 70.2205 89.8891 70.3199 91.3415 70.7683C92.0855 70.998 92.6097 71.2436 92.9141 71.505C93.2185 71.7665 93.3369 72.0068 93.2693 72.2259C93.2488 72.2921 93.1909 72.344 93.0956 72.3816C93.0019 72.4141 92.8964 72.4122 92.7792 72.376C92.662 72.3398 92.4503 72.2661 92.1442 72.1548C91.838 72.0435 91.5583 71.946 91.3051 71.8623C91.3066 71.9297 91.2948 72.0042 91.2696 72.0857C91.2444 72.1673 91.1643 72.3183 91.0292 72.539C90.8992 72.7612 90.7146 73.0698 90.4754 73.4648C90.2378 73.8547 89.9617 74.3332 89.647 74.9003C89.334 75.4623 89.1339 75.794 89.0467 75.8955C88.9662 75.9935 88.9031 76.0354 88.8572 76.0212C88.7502 75.9881 88.6451 75.8496 88.5418 75.6056C88.4452 75.3581 88.4157 75.1732 88.4535 75.0509C88.4913 74.9286 88.7515 74.4564 89.2342 73.6342C89.7185 72.8069 90.0734 72.1183 90.299 71.5684ZM94.2876 71.6109C94.3844 71.6408 94.5407 71.8035 94.7565 72.099C94.9789 72.391 95.0744 72.5879 95.0429 72.6898C94.9878 72.8682 94.956 73.1793 94.9473 73.6231C94.9386 74.067 94.9596 74.4782 95.0102 74.8566C95.2182 74.7254 95.577 74.4762 96.0867 74.1089C96.6031 73.7381 97.0294 73.4511 97.3656 73.2479C97.7019 73.0447 97.9312 72.962 98.0535 72.9998C98.1758 73.0375 98.2819 73.1457 98.3719 73.3242C98.4619 73.5027 98.4857 73.6607 98.4432 73.7983C98.4007 73.9359 98.3253 74.108 98.2169 74.3145C98.11 74.5159 98.002 74.7031 97.8928 74.8759C97.7903 75.0452 97.6436 75.2762 97.4528 75.5689C97.267 75.8632 97.1196 76.0968 97.0104 76.2696C96.9079 76.4389 96.7981 76.6227 96.6811 76.821C96.5656 77.0142 96.4737 77.1672 96.4053 77.2801C96.3437 77.3894 96.2746 77.5048 96.198 77.6263C96.1281 77.7442 96.0693 77.835 96.0218 77.8984C95.9759 77.9568 95.929 78.0093 95.8811 78.0559C95.792 78.1456 95.6965 78.1748 95.5946 78.1433C95.4927 78.1118 95.4214 77.981 95.3809 77.7508C95.347 77.517 95.3639 77.2906 95.4315 77.0715C95.5983 76.5313 95.9748 75.8633 96.561 75.0675C96.4398 75.1529 96.2638 75.2799 96.0331 75.4487C95.8039 75.6124 95.6328 75.7326 95.5198 75.8093C95.4135 75.8826 95.2813 75.9673 95.1231 76.0636C94.8434 76.2284 94.6042 76.2802 94.4054 76.2188C94.1404 76.137 93.9841 75.9743 93.9365 75.7308C93.9135 75.6064 93.911 75.3433 93.9291 74.9414C93.9538 74.536 93.9678 74.2556 93.9711 74.1004C93.7428 74.6048 93.5065 75.0537 93.2622 75.4472C93.0179 75.8406 92.8575 76.0981 92.7809 76.2196C92.7043 76.3411 92.6063 76.4866 92.487 76.6563C92.2859 76.9459 92.1446 77.0781 92.0631 77.0529C91.9714 77.0246 91.8809 76.8655 91.7918 76.5756C91.7094 76.2822 91.6894 76.0668 91.7319 75.9292C91.7744 75.7916 92.1345 75.1493 92.8125 74.0022C93.4955 72.8567 93.8873 72.1209 93.988 71.7948C94.0399 71.6266 94.1398 71.5653 94.2876 71.6109Z" fill="#22272E"/>
<path d="M173.5 45.7C166.3 46.1 162.367 46.3 161.7 46.3C160.1 46.3 158.5 45.3333 156.9 43.4C155.3 41.4 154.5 39.3333 154.5 37.2C154.5 33.9333 164 32.3 183 32.3C192.733 32.3 199.9 33.3 204.5 35.3C209.1 37.3 211.4 39.7333 211.4 42.6C211.4 43.4667 210.9 44.3 209.9 45.1C208.9 45.8333 207.633 46.2 206.1 46.2C204.567 46.2 201.767 46.1 197.7 45.9C193.633 45.7 189.933 45.5667 186.6 45.5C186.867 46.3 187 47.2333 187 48.3C187 49.3667 186.6 51.4667 185.8 54.6C185.067 57.7333 184 62.1 182.6 67.7C181.2 73.2333 179.667 79.9667 178 87.9C176.333 95.7667 175.167 100.467 174.5 102C173.9 103.467 173.3 104.2 172.7 104.2C171.3 104.2 169.533 102.933 167.4 100.4C165.333 97.8 164.3 95.7 164.3 94.1C164.3 92.5 165.667 85.9 168.4 74.3C171.133 62.6333 172.833 53.1 173.5 45.7ZM215.695 40.7C215.695 38.9667 216.461 37.2 217.995 35.4C219.595 33.5333 221.128 32.6 222.595 32.6C224.128 32.6 225.928 34.4 227.995 38C230.061 41.6 231.095 44.2333 231.095 45.9C231.095 47.5 230.561 48.7333 229.495 49.6C228.428 50.4667 227.328 50.9 226.195 50.9C224.261 50.9 222.028 49.6333 219.495 47.1C216.961 44.5667 215.695 42.4333 215.695 40.7ZM217.195 53.2C219.528 53.2 221.595 54.5333 223.395 57.2C225.261 59.8667 226.195 62.4333 226.195 64.9C226.195 66.1667 225.028 70.7333 222.695 78.6C220.428 86.4 218.161 93.8 215.895 100.8C215.095 103.4 213.461 104.7 210.995 104.7C209.528 104.7 208.228 104.167 207.095 103.1C206.028 101.967 205.495 100.533 205.495 98.8C205.495 97 206.328 92.6 207.995 85.6C209.728 78.5333 211.028 72.5333 211.895 67.6C212.828 62.6 213.661 58.9667 214.395 56.7C215.195 54.3667 216.128 53.2 217.195 53.2ZM268.671 53.2C272.138 53.2 275.171 54.7667 277.771 57.9C280.438 60.9667 281.771 64.2667 281.771 67.8C281.771 73.4667 280.838 79.4 278.971 85.6C277.171 91.7333 275.171 96.4667 272.971 99.8C270.838 103.133 268.638 104.8 266.371 104.8C264.171 104.8 263.071 103.233 263.071 100.1C263.071 97.7 264.171 92.8667 266.371 85.6C268.038 79.6 268.871 75.3 268.871 72.7C268.871 70.1 268.538 68.8 267.871 68.8C267.004 68.8 266.138 69.2333 265.271 70.1C264.471 70.9667 263.804 71.7333 263.271 72.4C262.738 73.0667 262.104 73.9333 261.371 75C260.704 76 260.104 76.9333 259.571 77.8C259.104 78.6 258.471 79.6667 257.671 81C256.938 82.2667 256.338 83.3333 255.871 84.2C255.404 85 254.804 86.0667 254.071 87.4C247.871 99 243.004 104.8 239.471 104.8C238.071 104.8 236.304 103.6 234.171 101.2C232.038 98.7333 230.971 96.9333 230.971 95.8C230.971 95.0667 231.438 93.5 232.371 91.1C233.371 88.6333 234.071 86.7667 234.471 85.5C234.938 84.1667 235.304 82.7667 235.571 81.3C235.904 79.8333 236.171 78.2667 236.371 76.6C236.571 74.8667 236.704 73.5333 236.771 72.6C236.904 71.6667 237.038 70.2 237.171 68.2C237.771 59.5333 238.271 54.7333 238.671 53.8C239.138 52.8667 239.638 52.4 240.171 52.4C242.704 52.4 245.138 53.4667 247.471 55.6C249.804 57.6667 250.971 59.5667 250.971 61.3C250.971 65.4333 249.904 71.3667 247.771 79.1C252.104 71.5 256.038 65.3 259.571 60.5C263.171 55.6333 266.204 53.2 268.671 53.2ZM324.542 55.7C324.942 54.0333 326.042 53.2 327.842 53.2C329.642 53.2 331.476 54.3333 333.342 56.6C335.276 58.8667 336.242 61.4333 336.242 64.3C336.242 65.9667 335.642 68.6 334.442 72.2C333.242 75.8 332.376 78.3667 331.842 79.9C331.376 81.4333 330.676 83.5333 329.742 86.2C328.809 88.8 327.942 91.2333 327.142 93.5C326.409 95.7 325.376 98.6667 324.042 102.4C322.776 106.133 321.609 109.6 320.542 112.8C318.476 118.8 315.942 123.433 312.942 126.7C310.009 129.967 306.176 131.6 301.442 131.6C296.709 131.6 292.476 130.333 288.742 127.8C285.009 125.333 283.142 122.833 283.142 120.3C283.142 118.767 283.809 117.067 285.142 115.2C286.542 113.333 287.709 112.4 288.642 112.4C289.642 112.4 290.909 113.167 292.442 114.7C294.042 116.3 295.676 117.867 297.342 119.4C299.009 121 300.476 121.8 301.742 121.8C302.609 121.8 303.309 121.4 303.842 120.6C304.442 119.8 304.909 119.067 305.242 118.4C305.642 117.8 306.042 116.933 306.442 115.8C306.842 114.733 307.209 113.733 307.542 112.8C307.876 111.867 308.276 110.633 308.742 109.1C309.209 107.567 309.609 106.2 309.942 105C311.076 101.4 312.042 98.2 312.842 95.4C310.642 98.2667 308.376 100.567 306.042 102.3C303.709 103.967 301.542 104.8 299.542 104.8C297.609 104.8 295.176 103.333 292.242 100.4C289.376 97.4 287.942 94.1333 287.942 90.6C287.942 87 288.709 82.2 290.242 76.2C291.842 70.2 293.809 64.8667 296.142 60.2C298.476 55.5333 300.542 53.2 302.342 53.2C304.409 53.2 306.342 54.1 308.142 55.9C310.009 57.6333 310.942 59.3333 310.942 61C310.942 62.6 310.109 65.2 308.442 68.8C306.842 72.4 305.209 76.3333 303.542 80.6C301.876 84.8667 301.042 88.5 301.042 91.5C301.042 91.9 301.209 92.1 301.542 92.1C302.409 92.1 304.242 90.5 307.042 87.3C309.842 84.0333 312.976 79.4333 316.442 73.5C319.976 67.5 322.676 61.5667 324.542 55.7ZM354.595 31.5C355.862 31.5 358.329 32.8667 361.995 35.6C365.729 38.2667 367.595 40.2667 367.595 41.6C367.595 43.9333 368.362 47.7667 369.895 53.1C371.429 58.4333 373.195 63.2667 375.195 67.6C377.195 65.2667 380.562 60.9667 385.295 54.7C390.095 48.3667 394.129 43.3667 397.395 39.7C400.662 36.0333 403.095 34.2 404.695 34.2C406.295 34.2 407.962 35.1 409.695 36.9C411.429 38.7 412.295 40.5 412.295 42.3C412.295 44.1 412.029 46.4333 411.495 49.3C410.962 52.1 410.362 54.7333 409.695 57.2C409.095 59.6 408.195 62.9 406.995 67.1C405.862 71.3 404.962 74.6333 404.295 77.1C403.695 79.5 403.062 82.1 402.395 84.9C401.729 87.6333 401.195 89.8 400.795 91.4C400.462 92.9333 400.062 94.5667 399.595 96.3C399.195 97.9667 398.829 99.2667 398.495 100.2C398.162 101.067 397.795 101.867 397.395 102.6C396.662 104 395.629 104.7 394.295 104.7C392.962 104.7 391.629 103.4 390.295 100.8C389.029 98.1333 388.395 95.3667 388.395 92.5C388.395 85.4333 390.429 76.0667 394.495 64.4C393.362 65.8667 391.729 68.0333 389.595 70.9C387.462 73.7 385.862 75.7667 384.795 77.1C383.795 78.3667 382.529 79.8667 380.995 81.6C378.262 84.6 375.595 86.1 372.995 86.1C369.529 86.1 367.062 84.7333 365.595 82C364.862 80.6 363.862 77.4667 362.595 72.6C361.395 67.6667 360.529 64.2667 359.995 62.4C359.129 69.2667 357.962 75.5 356.495 81.1C355.029 86.7 354.062 90.3667 353.595 92.1C353.129 93.8333 352.495 95.9333 351.695 98.4C350.362 102.6 349.162 104.7 348.095 104.7C346.895 104.7 345.229 103.133 343.095 100C341.029 96.8 339.995 94.3 339.995 92.5C339.995 90.7 341.929 81.7 345.795 65.5C349.729 49.3 351.695 39.0667 351.695 34.8C351.695 32.6 352.662 31.5 354.595 31.5ZM457.281 76.4C458.481 77.4667 459.081 78.4333 459.081 79.3C459.081 80.1667 458.681 81.9667 457.881 84.7C457.081 87.4333 456.548 89.5667 456.281 91.1C456.015 92.5667 455.781 93.7333 455.581 94.6C455.448 95.4667 455.348 96.1667 455.281 96.7C455.215 97.1667 455.081 97.7667 454.881 98.5C454.748 99.2333 454.615 99.8333 454.481 100.3C454.415 100.7 454.281 101.2 454.081 101.8C453.948 102.333 453.781 102.767 453.581 103.1C453.381 103.367 453.148 103.667 452.881 104C452.481 104.533 451.815 104.8 450.881 104.8C449.948 104.8 448.781 103.867 447.381 102C446.048 100.133 445.048 97.8667 444.381 95.2C438.115 101.6 432.848 104.8 428.581 104.8C425.715 104.8 422.615 103.233 419.281 100.1C415.948 96.9 414.281 93.7333 414.281 90.6C414.281 87.4 415.715 82.8667 418.581 77C421.448 71.1333 425.348 65.7 430.281 60.7C435.281 55.7 440.215 53.2 445.081 53.2C447.881 53.2 451.115 54.8333 454.781 58.1C458.448 61.3667 460.281 64.3667 460.281 67.1C460.281 69.7667 459.281 72.8667 457.281 76.4ZM428.181 92.2C430.848 92.2 434.381 90.4 438.781 86.8C443.248 83.1333 446.015 78.5333 447.081 73C447.148 72.2 447.715 71.7333 448.781 71.6C448.581 67.8 447.948 65.9 446.881 65.9C444.215 65.9 441.215 67.6333 437.881 71.1C434.615 74.5667 431.915 78.2667 429.781 82.2C427.715 86.1333 426.681 89.0333 426.681 90.9C426.681 91.4333 426.748 91.8 426.881 92C427.081 92.1333 427.515 92.2 428.181 92.2ZM471.258 70.1L470.658 58.8C470.658 55.0667 471.824 53.2 474.158 53.2C475.491 53.2 476.791 53.7 478.058 54.7C479.391 55.7 480.391 57.2667 481.058 59.4C483.324 57.4 485.791 55.8 488.458 54.6C491.191 53.3333 493.591 52.7 495.658 52.7C500.524 52.7 502.958 53.8667 502.958 56.2C502.958 57.4 502.724 58.3 502.258 58.9C501.858 59.4333 501.524 59.8333 501.258 60.1C501.058 60.3667 500.658 60.7333 500.058 61.2C499.524 61.6 499.124 61.9 498.858 62.1C497.324 63.1 496.224 63.8 495.558 64.2C492.558 66.0667 489.991 68.3333 487.858 71C485.724 73.6 484.124 77.2333 483.058 81.9C481.258 89.5667 479.491 95.3 477.758 99.1C476.091 102.833 474.191 104.7 472.058 104.7C469.991 104.7 468.424 103.7 467.358 101.7C466.358 99.7 465.858 97.8333 465.858 96.1C465.858 94.3 466.491 91.6333 467.758 88.1C469.091 84.5667 469.991 81.5333 470.458 79C470.991 76.4 471.258 73.4333 471.258 70.1ZM511.288 104.8C509.755 104.8 507.822 103.567 505.488 101.1C503.222 98.6333 502.088 96.6667 502.088 95.2C502.088 94.8 503.188 90.8333 505.388 83.3C507.655 75.7667 509.888 66.7 512.088 56.1C514.355 45.5 515.488 36.2333 515.488 28.3C515.488 26.2333 516.422 25.2 518.288 25.2C519.888 25.2 521.988 26.6667 524.588 29.6C527.255 32.4667 528.588 35.1667 528.588 37.7C528.588 41.3667 527.255 48.3 524.588 58.5C521.988 68.7 519.388 76.7333 516.788 82.6C517.655 81.4667 518.822 79.9667 520.288 78.1C521.822 76.1667 523.055 74.6 523.988 73.4C524.922 72.2 526.055 70.7333 527.388 69C528.788 67.2667 529.955 65.8667 530.888 64.8C531.822 63.6667 532.855 62.4333 533.988 61.1C535.122 59.7 536.088 58.6 536.888 57.8C537.755 56.9333 538.622 56.1333 539.488 55.4C541.088 53.9333 542.322 53.2 543.188 53.2C544.855 53.2 546.688 54.3333 548.688 56.6C550.688 58.8 551.688 60.7333 551.688 62.4C551.688 63.0667 550.255 64.6 547.388 67C544.588 69.4 541.755 72.0667 538.888 75C536.088 77.9333 534.688 80.5667 534.688 82.9C534.688 85.1667 535.355 87.4 536.688 89.6C538.088 91.7333 539.588 93.3667 541.188 94.5C542.788 95.6333 544.255 96.8 545.588 98C546.988 99.1333 547.688 100.1 547.688 100.9C547.688 103.5 545.922 104.8 542.388 104.8C538.188 104.8 532.622 101.267 525.688 94.2L523.288 91.8C517.288 100.467 513.288 104.8 511.288 104.8Z" fill="#BDD0E5"/>
</svg>
